<mxfile host="drawio-plugin" modified="2022-12-19T01:03:18.968Z" agent="5.0 (Windows NT 6.2; Win64; x64) AppleWebKit/537.36 (KHTML, like Gecko) Chrome/104.0.5112.102 Safari/537.36" etag="JcmWTyxIfD_d4RfyapzB" version="20.5.3" type="embed"><diagram name="Page-1" id="c7558073-3199-34d8-9f00-42111426c3f3"><mxGraphModel dx="1028" dy="752" grid="1" gridSize="10" guides="1" tooltips="1" connect="1" arrows="1" fold="1" page="1" pageScale="1" pageWidth="826" pageHeight="1169" background="none" math="0" shadow="0"><root><mxCell id="0"/><mxCell id="1" parent="0"/><UserObject label="PolicyBatch" id="98"><mxCell style="swimlane;horizontal=0;whiteSpace=wrap;html=1;fontFamily=Lucida Console;verticalAlign=middle;" parent="1" vertex="1"><mxGeometry x="20" y="762" width="3960" height="3428" as="geometry"/></mxCell></UserObject><mxCell id="224" value="&lt;span style=&quot;color: rgb(16, 18, 20); font-family: &amp;quot;PingFang SC&amp;quot;, &amp;quot;Segoe UI&amp;quot;, Arial, &amp;quot;Microsoft YaHei&amp;quot;, 微软雅黑, 宋体, &amp;quot;Malgun Gothic&amp;quot;, sans-serif; font-size: 14px; text-align: start; background-color: rgb(255, 255, 255);&quot;&gt;每月1日0点提取包月计费保单&lt;/span&gt;" style="text;html=1;strokeColor=none;fillColor=none;align=center;verticalAlign=middle;whiteSpace=wrap;rounded=0;" parent="98" vertex="1"><mxGeometry x="90" y="56" width="120" height="30" as="geometry"/></mxCell><mxCell id="228" style="edgeStyle=orthogonalEdgeStyle;rounded=0;orthogonalLoop=1;jettySize=auto;html=1;exitX=1;exitY=0.5;exitDx=0;exitDy=0;entryX=0;entryY=0.5;entryDx=0;entryDy=0;" parent="98" source="225" target="227" edge="1"><mxGeometry relative="1" as="geometry"/></mxCell><mxCell id="225" value="&lt;div class=&quot;mind-clipboard&quot; style=&quot;font-size: 16px;&quot;&gt;&lt;div class=&quot;mind-clipboard&quot; style=&quot;font-size: 16px;&quot;&gt;每页最大的ID，以每页limit1000为基准，分页查询，按id正序排序，取每页最后一条记录更新maxIdValue，作为下一个分页查询的条件&lt;br style=&quot;font-size: 16px;&quot;&gt;&lt;/div&gt;&lt;/div&gt;" style="rounded=1;whiteSpace=wrap;html=1;absoluteArcSize=1;arcSize=14;strokeWidth=2;fontFamily=Lucida Console;fontSize=16;" parent="98" vertex="1"><mxGeometry x="786" y="90.25" width="240" height="102" as="geometry"/></mxCell><mxCell id="227" value="&lt;div class=&quot;mind-clipboard&quot; style=&quot;font-size: 16px;&quot;&gt;查询获取到list&lt;div style=&quot;font-size: 16px;&quot;&gt;遍历，异步处理每个object&lt;/div&gt;&lt;/div&gt;" style="rounded=1;whiteSpace=wrap;html=1;absoluteArcSize=1;arcSize=14;strokeWidth=2;fontFamily=Lucida Console;fontSize=16;" parent="98" vertex="1"><mxGeometry x="1100" y="96.25" width="150" height="90" as="geometry"/></mxCell><mxCell id="221" value="&lt;font color=&quot;#323232&quot;&gt;&lt;span style=&quot;font-size: 18px; background-color: rgba(255, 255, 255, 0.01);&quot;&gt;雅虎课金文件作成&lt;/span&gt;&lt;/font&gt;" style="strokeWidth=2;html=1;shape=mxgraph.flowchart.start_2;whiteSpace=wrap;fillColor=#f8cecc;strokeColor=#b85450;fontFamily=Lucida Console;" parent="98" vertex="1"><mxGeometry x="106.5" y="100.75" width="87" height="81" as="geometry"/></mxCell><mxCell id="258" style="edgeStyle=orthogonalEdgeStyle;rounded=0;orthogonalLoop=1;jettySize=auto;html=1;entryX=0;entryY=0.5;entryDx=0;entryDy=0;" parent="98" source="256" target="257" edge="1"><mxGeometry relative="1" as="geometry"/></mxCell><mxCell id="256" value="&lt;font color=&quot;#323232&quot;&gt;&lt;span style=&quot;font-size: 18px; background-color: rgba(255, 255, 255, 0.01);&quot;&gt;扣款JOB&lt;/span&gt;&lt;/font&gt;" style="strokeWidth=2;html=1;shape=mxgraph.flowchart.start_2;whiteSpace=wrap;fillColor=#f8cecc;strokeColor=#b85450;fontFamily=Lucida Console;" parent="98" vertex="1"><mxGeometry x="193.5" y="568" width="87" height="81" as="geometry"/></mxCell><mxCell id="262" value="" style="edgeStyle=orthogonalEdgeStyle;rounded=0;orthogonalLoop=1;jettySize=auto;html=1;fontSize=16;" parent="98" source="257" target="261" edge="1"><mxGeometry relative="1" as="geometry"/></mxCell><mxCell id="257" value="&lt;div class=&quot;mind-clipboard&quot; style=&quot;font-size: 16px;&quot;&gt;查询未处理的续期账单&lt;/div&gt;" style="rounded=1;whiteSpace=wrap;html=1;absoluteArcSize=1;arcSize=14;strokeWidth=2;fontFamily=Lucida Console;fontSize=16;" parent="98" vertex="1"><mxGeometry x="393" y="574.25" width="177" height="68.5" as="geometry"/></mxCell><mxCell id="266" value="" style="edgeStyle=orthogonalEdgeStyle;rounded=0;orthogonalLoop=1;jettySize=auto;html=1;fontSize=16;" parent="98" source="261" target="265" edge="1"><mxGeometry relative="1" as="geometry"/></mxCell><mxCell id="261" value="&lt;div class=&quot;mind-clipboard&quot; style=&quot;font-size: 16px;&quot;&gt;分页处理&lt;/div&gt;" style="rounded=1;whiteSpace=wrap;html=1;absoluteArcSize=1;arcSize=14;strokeWidth=2;fontFamily=Lucida Console;fontSize=16;" parent="98" vertex="1"><mxGeometry x="393" y="699.5" width="177" height="68.5" as="geometry"/></mxCell><mxCell id="271" value="" style="edgeStyle=orthogonalEdgeStyle;rounded=0;orthogonalLoop=1;jettySize=auto;html=1;fontSize=16;" parent="98" source="265" target="267" edge="1"><mxGeometry relative="1" as="geometry"/></mxCell><mxCell id="276" value="" style="edgeStyle=orthogonalEdgeStyle;rounded=0;orthogonalLoop=1;jettySize=auto;html=1;fontSize=16;" parent="98" source="265" target="275" edge="1"><mxGeometry relative="1" as="geometry"/></mxCell><mxCell id="265" value="&lt;div class=&quot;mind-clipboard&quot; style=&quot;font-size: 16px;&quot;&gt;bill confirm&lt;/div&gt;" style="rounded=1;whiteSpace=wrap;html=1;absoluteArcSize=1;arcSize=14;strokeWidth=2;fontFamily=Lucida Console;fontSize=16;" parent="98" vertex="1"><mxGeometry x="393" y="830" width="177" height="68.5" as="geometry"/></mxCell><mxCell id="272" style="edgeStyle=orthogonalEdgeStyle;rounded=0;orthogonalLoop=1;jettySize=auto;html=1;entryX=0;entryY=0.5;entryDx=0;entryDy=0;fontSize=16;exitX=0.5;exitY=0;exitDx=0;exitDy=0;" parent="98" source="267" target="261" edge="1"><mxGeometry relative="1" as="geometry"/></mxCell><mxCell id="267" value="&lt;div class=&quot;mind-clipboard&quot; style=&quot;font-size: 16px;&quot;&gt;冲销结束&lt;/div&gt;" style="rounded=1;whiteSpace=wrap;html=1;absoluteArcSize=1;arcSize=14;strokeWidth=2;fontFamily=Lucida Console;fontSize=16;" parent="98" vertex="1"><mxGeometry x="130" y="830" width="177" height="68.5" as="geometry"/></mxCell><mxCell id="273" value="&lt;font color=&quot;#323232&quot;&gt;&lt;span style=&quot;font-size: 18px; background-color: rgba(255, 255, 255, 0.01);&quot;&gt;end&lt;/span&gt;&lt;/font&gt;" style="strokeWidth=2;html=1;shape=mxgraph.flowchart.start_2;whiteSpace=wrap;fillColor=#f8cecc;strokeColor=#b85450;fontFamily=Lucida Console;" parent="98" vertex="1"><mxGeometry x="438" y="1148" width="87" height="81" as="geometry"/></mxCell><mxCell id="277" value="" style="edgeStyle=orthogonalEdgeStyle;rounded=0;orthogonalLoop=1;jettySize=auto;html=1;fontSize=16;" parent="98" source="275" target="273" edge="1"><mxGeometry relative="1" as="geometry"/></mxCell><mxCell id="275" value="&lt;div class=&quot;mind-clipboard&quot; style=&quot;font-size: 16px;&quot;&gt;消费bcp-bill-confirm消息，续期transaction confirm以及&lt;br&gt;续期计划dueDate等日期+1月&lt;/div&gt;" style="rounded=1;whiteSpace=wrap;html=1;absoluteArcSize=1;arcSize=14;strokeWidth=2;fontFamily=Lucida Console;fontSize=16;" parent="98" vertex="1"><mxGeometry x="353" y="968" width="257" height="112" as="geometry"/></mxCell><mxCell id="279" value="&lt;div class=&quot;mind-clipboard&quot; style=&quot;font-size: 16px;&quot;&gt;setTransType(RENEWAL(4, &quot;续期&quot;))&lt;div style=&quot;font-size: 16px;&quot;&gt;setBillStatus(PENDING(1, &quot;待处理&quot;),TRANSFER_FAILURE(7, &quot;转账失败&quot;))&lt;br style=&quot;font-size: 16px;&quot;&gt;&lt;/div&gt;&lt;div style=&quot;font-size: 16px;&quot;&gt;setArapAccountType(SOFT_BANK_CREDIT_CARD(115, &quot;softBank-信用卡&quot;),CASH_PAY_PAY_SJ(123, &quot;现金Pay-Pay(SJ)&quot;))&lt;br style=&quot;font-size: 16px;&quot;&gt;&lt;/div&gt;&lt;div style=&quot;text-align: center; font-size: 16px;&quot;&gt;以上作为条件查询&lt;/div&gt;&lt;div style=&quot;text-align: center; font-size: 16px;&quot;&gt;bill&lt;/div&gt;&lt;/div&gt;" style="rounded=1;whiteSpace=wrap;html=1;absoluteArcSize=1;arcSize=14;strokeWidth=2;fontFamily=Lucida Console;align=left;fontSize=16;" vertex="1" parent="98"><mxGeometry x="274" y="57.819999999999936" width="440" height="166.87" as="geometry"/></mxCell><mxCell id="280" value="" style="edgeStyle=orthogonalEdgeStyle;rounded=0;orthogonalLoop=1;jettySize=auto;html=1;fontSize=16;" edge="1" parent="98" source="279" target="225"><mxGeometry relative="1" as="geometry"/></mxCell><mxCell id="281" value="" style="edgeStyle=orthogonalEdgeStyle;rounded=0;orthogonalLoop=1;jettySize=auto;html=1;fontSize=16;" edge="1" parent="98" source="221" target="279"><mxGeometry relative="1" as="geometry"/></mxCell><mxCell id="220" value="foundation" style="swimlane;horizontal=0;whiteSpace=wrap;html=1;fontSize=16;" parent="1" vertex="1"><mxGeometry x="20" y="440" width="3960" height="270" as="geometry"/></mxCell></root></mxGraphModel></diagram></mxfile>